<svg xmlns="http://www.w3.org/2000/svg" width="1280" height="760" viewBox="0 0 1280 760" font-family="Helvetica, Arial, sans-serif">
  <defs>
    <marker id="arrow" markerWidth="10" markerHeight="10" refX="8" refY="3" orient="auto" markerUnits="strokeWidth">
      <path d="M0,0 L8,3 L0,6 z" fill="#334155"/>
    </marker>
    <marker id="arrowBlue" markerWidth="10" markerHeight="10" refX="8" refY="3" orient="auto" markerUnits="strokeWidth">
      <path d="M0,0 L8,3 L0,6 z" fill="#1d4ed8"/>
    </marker>
  </defs>

  <rect x="0" y="0" width="1280" height="760" fill="#ffffff"/>
  <text x="640" y="34" text-anchor="middle" font-size="22" font-weight="700" fill="#0f172a">TooVix DAM — Agentless Cloud SQL Monitoring (GCP Pub/Sub Push)</text>
  <text x="640" y="56" text-anchor="middle" font-size="13" fill="#475569">Outbound-only · no agent · no inbound to the customer DB · pull subscription</text>

  <!-- ============ ZONE A: Customer Landing Zone ============ -->
  <rect x="24" y="80" width="392" height="600" rx="12" fill="#eef2f7" stroke="#b8c4d4" stroke-width="1.5"/>
  <text x="44" y="108" font-size="15" font-weight="700" fill="#1e3a5f">CUSTOMER LANDING ZONE</text>
  <text x="44" y="126" font-size="11.5" fill="#64748b">customer GCP org / project</text>

  <!-- Spoke VPC -->
  <rect x="44" y="140" width="352" height="230" rx="10" fill="#ffffff" stroke="#94a3b8" stroke-width="1"/>
  <text x="60" y="160" font-size="12" font-weight="600" fill="#334155">Spoke VPC · 10.30.0.0/16 (private)</text>

  <rect x="64" y="176" width="312" height="86" rx="8" fill="#f8fafc" stroke="#2563eb" stroke-width="1.5"/>
  <text x="80" y="198" font-size="13.5" font-weight="700" fill="#0f172a">Cloud SQL — db-paas</text>
  <text x="80" y="216" font-size="11.5" fill="#475569">MySQL 8 · PRIVATE IP 10.30.240.7 · no public IP</text>
  <text x="80" y="234" font-size="11" fill="#1d4ed8">① audit plugin + Data Access audit logs</text>
  <text x="80" y="250" font-size="11" fill="#64748b">writes its own audit records — never dials out</text>

  <rect x="64" y="276" width="312" height="72" rx="8" fill="#f8fafc" stroke="#cbd5e1" stroke-width="1"/>
  <text x="80" y="298" font-size="12.5" font-weight="600" fill="#334155">Bastion (IAP SSH) · 10.30.0.2</text>
  <text x="80" y="316" font-size="11" fill="#64748b">one-time SQL setup only</text>
  <text x="80" y="332" font-size="11" fill="#b91c1c">NOT in the data path</text>

  <!-- Hub VPC (customer) -->
  <rect x="44" y="386" width="352" height="66" rx="10" fill="#ffffff" stroke="#94a3b8" stroke-width="1"/>
  <text x="60" y="408" font-size="12" font-weight="600" fill="#334155">Hub VPC · FW + Cloud NAT (egress)</text>
  <text x="60" y="428" font-size="11" fill="#64748b">NOT used by this pipe — DB→Logging→Sink</text>
  <text x="60" y="443" font-size="11" fill="#64748b">is all Google-internal (no customer FW/NAT)</text>

  <!-- IAM box -->
  <rect x="44" y="468" width="352" height="88" rx="10" fill="#fef2f2" stroke="#fecaca" stroke-width="1.2"/>
  <text x="60" y="490" font-size="12.5" font-weight="700" fill="#991b1b">⑤ IAM trust boundary</text>
  <text x="60" y="510" font-size="11.5" fill="#7f1d1d">Customer grants the DAM identity</text>
  <text x="60" y="527" font-size="11.5" font-weight="600" fill="#7f1d1d">roles/pubsub.subscriber</text>
  <text x="60" y="544" font-size="11.5" fill="#7f1d1d">on the subscription · revocable · no keys (WIF)</text>

  <text x="44" y="588" font-size="11.5" fill="#475569">④ Topic / Sink / Subscription are created</text>
  <text x="44" y="605" font-size="11.5" fill="#475569">    HERE (customer project) → per-tenant isolation</text>
  <text x="44" y="640" font-size="11.5" font-weight="600" fill="#16a34a">✓ No inbound to the DB from DAM</text>
  <text x="44" y="658" font-size="11.5" font-weight="600" fill="#16a34a">✓ No agent · no DB credentials</text>

  <!-- ============ ZONE B: Google-managed ============ -->
  <rect x="440" y="80" width="316" height="600" rx="12" fill="#fff7e6" stroke="#f0c674" stroke-width="1.5"/>
  <text x="460" y="108" font-size="15" font-weight="700" fill="#92610a">GOOGLE-MANAGED</text>
  <text x="460" y="126" font-size="11.5" fill="#a16207">global · serverless · VPC-less</text>

  <rect x="470" y="170" width="256" height="70" rx="8" fill="#ffffff" stroke="#f0c674" stroke-width="1.3"/>
  <text x="486" y="192" font-size="13" font-weight="700" fill="#0f172a">Cloud Logging</text>
  <text x="486" y="210" font-size="11.5" fill="#475569">data_access log</text>
  <text x="486" y="227" font-size="11.5" fill="#475569">(MysqlAuditEntry: query, user, cmd, objects)</text>

  <rect x="470" y="292" width="256" height="60" rx="8" fill="#ffffff" stroke="#f0c674" stroke-width="1.3"/>
  <text x="486" y="314" font-size="13" font-weight="700" fill="#0f172a">② Log Sink (Log Router)</text>
  <text x="486" y="332" font-size="11.5" fill="#475569">filter → destination = Pub/Sub topic</text>

  <rect x="470" y="404" width="256" height="60" rx="8" fill="#ffffff" stroke="#f0c674" stroke-width="1.3"/>
  <text x="486" y="426" font-size="13" font-weight="700" fill="#0f172a">③ Pub/Sub Topic</text>
  <text x="486" y="444" font-size="11.5" fill="#475569">toovix-dam-db-audit</text>

  <rect x="470" y="516" width="256" height="66" rx="8" fill="#ffffff" stroke="#f0c674" stroke-width="1.3"/>
  <text x="486" y="538" font-size="13" font-weight="700" fill="#0f172a">Subscription</text>
  <text x="486" y="556" font-size="11.5" fill="#475569">toovix-dam-db-audit-sub</text>
  <text x="486" y="572" font-size="11" fill="#64748b">retains messages if DAM is down</text>

  <text x="460" y="626" font-size="11.5" fill="#a16207">③ VPC-less / global — no subnet, no IP.</text>
  <text x="460" y="643" font-size="11.5" fill="#a16207">Accessed only via API + IAM.</text>

  <!-- vertical flow arrows in zone B -->
  <line x1="598" y1="240" x2="598" y2="290" stroke="#334155" stroke-width="2" marker-end="url(#arrow)"/>
  <line x1="598" y1="352" x2="598" y2="402" stroke="#334155" stroke-width="2" marker-end="url(#arrow)"/>
  <line x1="598" y1="464" x2="598" y2="514" stroke="#334155" stroke-width="2" marker-end="url(#arrow)"/>

  <!-- DB -> Cloud Logging arrow (A to B) -->
  <path d="M376 219 C 410 219, 430 205, 468 205" fill="none" stroke="#334155" stroke-width="2" marker-end="url(#arrow)"/>

  <!-- ============ ZONE C: DAM Landing Zone ============ -->
  <rect x="780" y="80" width="476" height="600" rx="12" fill="#e9f7ef" stroke="#a3d9b8" stroke-width="1.5"/>
  <text x="800" y="108" font-size="15" font-weight="700" fill="#166534">DAM LANDING ZONE</text>
  <text x="800" y="126" font-size="11.5" fill="#15803d">SaaS org — GCP, or AWS / Azure</text>

  <!-- DAM Hub -->
  <rect x="800" y="140" width="436" height="118" rx="10" fill="#ffffff" stroke="#86b8a0" stroke-width="1"/>
  <text x="816" y="162" font-size="12" font-weight="600" fill="#334155">DAM Hub VPC (peered)</text>
  <rect x="816" y="174" width="196" height="70" rx="8" fill="#f0fdf4" stroke="#22c55e" stroke-width="1"/>
  <text x="830" y="196" font-size="12.5" font-weight="700" fill="#0f172a">⑥ Egress FW / Cloud NAT</text>
  <text x="830" y="214" font-size="11" fill="#475569">allow 443 → *.googleapis.com</text>
  <text x="830" y="230" font-size="11" fill="#475569">(pubsub, oauth2, sts, iamcreds)</text>
  <rect x="1024" y="174" width="196" height="70" rx="8" fill="#eff6ff" stroke="#60a5fa" stroke-width="1"/>
  <text x="1038" y="196" font-size="12.5" font-weight="700" fill="#0f172a">⑦ WAF / LB (public IP)</text>
  <text x="1038" y="214" font-size="11" fill="#475569">ingress: UI + monitoring agents</text>
  <text x="1038" y="230" font-size="11" fill="#64748b">separate from this pipe</text>

  <!-- DAM control plane -->
  <rect x="800" y="286" width="436" height="150" rx="10" fill="#ffffff" stroke="#86b8a0" stroke-width="1"/>
  <text x="816" y="308" font-size="12" font-weight="600" fill="#334155">DAM Spoke VPC — control plane (private, no public IP)</text>
  <rect x="816" y="322" width="404" height="96" rx="8" fill="#f0fdf4" stroke="#16a34a" stroke-width="1.3"/>
  <text x="832" y="344" font-size="13.5" font-weight="700" fill="#0f172a">Pub/Sub SUBSCRIBER WORKER</text>
  <text x="832" y="363" font-size="11.5" fill="#475569">pull → decode LogEntry → normalize (query→sql,</text>
  <text x="832" y="380" font-size="11.5" fill="#475569">user→principal, cmd→op, objects→db/table) → ack</text>
  <text x="832" y="400" font-size="11.5" font-weight="600" fill="#166534">→ Audit Trail · detection · classification</text>

  <!-- Auth note -->
  <rect x="800" y="452" width="436" height="70" rx="10" fill="#fefce8" stroke="#fde68a" stroke-width="1.2"/>
  <text x="816" y="474" font-size="12.5" font-weight="700" fill="#854d0e">Auth (⑤): keyless or read-only key</text>
  <text x="816" y="492" font-size="11.5" fill="#713f12">Same cloud → cross-project IAM grant.</text>
  <text x="816" y="509" font-size="11.5" fill="#713f12">Different cloud → Workload Identity Federation (no key).</text>

  <text x="800" y="556" font-size="11.5" font-weight="600" fill="#16a34a">✓ Outbound-only — DAM dials out to Pub/Sub</text>
  <text x="800" y="574" font-size="11.5" font-weight="600" fill="#16a34a">✓ No inbound from Pub/Sub (pull, not push-webhook)</text>
  <text x="800" y="592" font-size="11.5" font-weight="600" fill="#16a34a">✓ DAM host cloud doesn't change the stream (GCP=Pub/Sub)</text>

  <!-- ⑥ outbound pull arrow: Subscription (B) -> Subscriber (C), goes down and across -->
  <path d="M726 549 C 760 549, 770 600, 720 600 L 720 470 C 720 445, 900 470, 908 424"
        fill="none" stroke="#1d4ed8" stroke-width="2.5" stroke-dasharray="1 0" marker-end="url(#arrowBlue)"/>
  <text x="735" y="520" font-size="11" font-weight="700" fill="#1d4ed8">⑥ outbound pull (gRPC 443)</text>

  <!-- Bottom flow legend -->
  <rect x="24" y="700" width="1232" height="44" rx="10" fill="#f8fafc" stroke="#e2e8f0" stroke-width="1"/>
  <text x="44" y="720" font-size="12.5" font-weight="700" fill="#0f172a">DATA FLOW:</text>
  <text x="130" y="720" font-size="12" fill="#334155">DB —①audit→ Cloud Logging —②Log Sink→ Pub/Sub Topic → Subscription —⑥outbound pull→ DAM subscriber → normalize → Audit Trail / detection</text>
  <text x="44" y="736" font-size="11" fill="#b91c1c">Security: ① private-IP DB, no public IP  ·  ⑤ IAM-only trust (revocable, keyless)  ·  ⑥ DAM egress-only to *.googleapis.com  ·  no inbound to customer or DB</text>
</svg>
