<?xml version="1.0" encoding="UTF-8"?>
<!DOCTYPE svg PUBLIC "-//W3C//DTD SVG 1.1//EN" "http://www.w3.org/Graphics/SVG/1.1/DTD/svg11.dtd">
<!-- Creator: CorelDRAW 2026 -->
<svg xmlns="http://www.w3.org/2000/svg" xml:space="preserve" width="2.27444in" height="2.63183in" version="1.1" style="shape-rendering:geometricPrecision; text-rendering:geometricPrecision; image-rendering:optimizeQuality; fill-rule:evenodd; clip-rule:evenodd"
viewBox="0 0 1727.1 1998.48"
 xmlns:xlink="http://www.w3.org/1999/xlink"
 xmlns:xodm="http://www.corel.com/coreldraw/odm/2003">
 <defs>
  <style type="text/css">
   <![CDATA[
    .fil0 {fill:#041226}
    .fil1 {fill:#117FF7}
   ]]>
  </style>
 </defs>
 <g id="Layer_x0020_1">
  <metadata id="CorelCorpID_0Corel-Layer"/>
  <g id="_2298583238448">
   <path class="fil0" d="M818.26 5.02l-818.26 269.47c0,0 13.15,391.06 29.58,515.93l781.7 209.46 0 -183.17 -625.49 -167.6 0 -239.89 629.18 -203.75 3.29 -200.46z"/>
   <path class="fil0" d="M62.01 1032.3c0,0 83.46,634.27 799.85,966.18 0,0 670.38,-246.46 795.26,-956.29l-174.17 42.72c0,0 -134.73,483.07 -617.81,713.11 0,0 -456.78,-207.03 -604.66,-709.82l-198.48 -55.9z"/>
   <path class="fil1" d="M924.02 838.45l0 199.66 686.66 185.72c0,0 57.4,-143.56 46.45,-181.63l-733.11 -203.74z"/>
   <polygon class="fil1" points="917.86,0 917.86,203.57 1726.72,469.57 1727.1,268.28 "/>
   <polygon class="fil1" points="984.38,446.98 944.25,628.73 1697.2,848.24 1720.47,657.03 "/>
  </g>
 </g>
</svg>
